<?xml version="1.0" standalone="no"?><!DOCTYPE svg PUBLIC "-//W3C//DTD SVG 1.1//EN" "http://www.w3.org/Graphics/SVG/1.1/DTD/svg11.dtd"><svg class="icon" height="512" viewBox="0 0 1024 1024" version="1.1" xmlns="http://www.w3.org/2000/svg"><path d="M858.062 588.502h-243.898c-20.23 0-36.641 16.411-36.641 36.641v243.795c0 20.23 16.411 36.641 36.641 36.641h243.898c20.23 0 36.641-16.411 36.641-36.641v-243.795c0-9.805-3.819-18.992-10.734-25.907s-16.205-10.734-25.907-10.734zM828.439 856.862h-184.652c-9.702 0-17.547-7.844-17.547-17.547v-184.549c0-9.702 7.844-17.547 17.547-17.547h184.549c9.702 0 17.547 7.844 17.547 17.547v184.549c0.103 9.702-7.844 17.547-17.443 17.547zM407.527 588.502h-243.795c-20.23 0-36.641 16.411-36.641 36.641v243.795c0 20.23 16.411 36.641 36.641 36.641h243.795c20.23 0 36.641-16.411 36.641-36.641v-243.795c0-9.805-3.819-18.992-10.734-25.907s-16.102-10.734-25.907-10.734zM377.904 856.862h-184.652c-9.702 0-17.547-7.844-17.547-17.547v-184.549c0-9.702 7.844-17.547 17.547-17.547h184.549c9.702 0 17.547 7.844 17.547 17.547v184.549c0.103 9.702-7.741 17.547-17.443 17.547zM883.969 150.353c-6.915-6.915-16.102-10.734-25.907-10.734h-243.898c-20.23 0-36.641 16.411-36.641 36.641v243.795c0 20.23 16.411 36.641 36.641 36.641h243.898c20.23 0 36.641-16.411 36.641-36.641v-243.795c0-9.805-3.819-18.992-10.734-25.907zM828.439 407.978h-184.652c-9.702 0-17.547-7.844-17.547-17.547v-184.549c0-9.702 7.844-17.547 17.547-17.547h184.549c9.702 0 17.547 7.844 17.547 17.547v184.549c0.103 9.702-7.844 17.547-17.443 17.547zM407.527 139.618h-243.795c-20.23 0-36.641 16.411-36.641 36.641v243.795c0 20.23 16.411 36.641 36.641 36.641h243.795c20.23 0 36.641-16.411 36.641-36.641v-243.795c0-9.805-3.819-18.992-10.734-25.907s-16.102-10.734-25.907-10.734zM377.904 407.978h-184.652c-9.702 0-17.547-7.844-17.547-17.547v-184.549c0-9.702 7.844-17.547 17.547-17.547h184.549c9.702 0 17.547 7.844 17.547 17.547v184.549c0.103 9.702-7.741 17.547-17.443 17.547z" /></svg>